<?xml version="1.0" encoding="UTF-8"?>
<svg width="768" height="1024" viewBox="0 0 768 1024" xmlns="http://www.w3.org/2000/svg">
  <defs>
    <linearGradient id="gradient" x1="0%" y1="0%" x2="100%" y2="100%">
      <stop offset="0%" style="stop-color:#4548d3;stop-opacity:1" />
      <stop offset="50%" style="stop-color:#6366F1;stop-opacity:1" />
      <stop offset="100%" style="stop-color:#8184ff;stop-opacity:1" />
    </linearGradient>
    <filter id="glow">
      <feGaussianBlur stdDeviation="3" result="coloredBlur"/>
      <feMerge>
        <feMergeNode in="coloredBlur"/>
        <feMergeNode in="SourceGraphic"/>
      </feMerge>
    </filter>
  </defs>

  <!-- Background -->
  <rect width="100%" height="100%" fill="#0a0a1a"/>

  <!-- Gradient overlay -->
  <rect width="100%" height="100%" fill="url(#gradient)" opacity="0.3"/>

  <!-- Decorative circles -->
  <circle cx="153.60000000000002" cy="307.2" r="115.19999999999999" fill="#6366F1" opacity="0.1" filter="url(#glow)"/>
  <circle cx="614.4000000000001" cy="716.8" r="153.60000000000002" fill="#8184ff" opacity="0.1" filter="url(#glow)"/>

  <!-- Grid pattern -->
  <g opacity="0.05">
    <line x1="0" y1="0" x2="0" y2="1024" stroke="white" stroke-width="0.5"/><line x1="50" y1="0" x2="50" y2="1024" stroke="white" stroke-width="0.5"/><line x1="100" y1="0" x2="100" y2="1024" stroke="white" stroke-width="0.5"/><line x1="150" y1="0" x2="150" y2="1024" stroke="white" stroke-width="0.5"/><line x1="200" y1="0" x2="200" y2="1024" stroke="white" stroke-width="0.5"/><line x1="250" y1="0" x2="250" y2="1024" stroke="white" stroke-width="0.5"/><line x1="300" y1="0" x2="300" y2="1024" stroke="white" stroke-width="0.5"/><line x1="350" y1="0" x2="350" y2="1024" stroke="white" stroke-width="0.5"/><line x1="400" y1="0" x2="400" y2="1024" stroke="white" stroke-width="0.5"/><line x1="450" y1="0" x2="450" y2="1024" stroke="white" stroke-width="0.5"/><line x1="500" y1="0" x2="500" y2="1024" stroke="white" stroke-width="0.5"/><line x1="550" y1="0" x2="550" y2="1024" stroke="white" stroke-width="0.5"/><line x1="600" y1="0" x2="600" y2="1024" stroke="white" stroke-width="0.5"/><line x1="650" y1="0" x2="650" y2="1024" stroke="white" stroke-width="0.5"/><line x1="700" y1="0" x2="700" y2="1024" stroke="white" stroke-width="0.5"/><line x1="750" y1="0" x2="750" y2="1024" stroke="white" stroke-width="0.5"/><line x1="0" y1="0" x2="768" y2="0" stroke="white" stroke-width="0.5"/><line x1="0" y1="50" x2="768" y2="50" stroke="white" stroke-width="0.5"/><line x1="0" y1="100" x2="768" y2="100" stroke="white" stroke-width="0.5"/><line x1="0" y1="150" x2="768" y2="150" stroke="white" stroke-width="0.5"/><line x1="0" y1="200" x2="768" y2="200" stroke="white" stroke-width="0.5"/><line x1="0" y1="250" x2="768" y2="250" stroke="white" stroke-width="0.5"/><line x1="0" y1="300" x2="768" y2="300" stroke="white" stroke-width="0.5"/><line x1="0" y1="350" x2="768" y2="350" stroke="white" stroke-width="0.5"/><line x1="0" y1="400" x2="768" y2="400" stroke="white" stroke-width="0.5"/><line x1="0" y1="450" x2="768" y2="450" stroke="white" stroke-width="0.5"/><line x1="0" y1="500" x2="768" y2="500" stroke="white" stroke-width="0.5"/><line x1="0" y1="550" x2="768" y2="550" stroke="white" stroke-width="0.5"/><line x1="0" y1="600" x2="768" y2="600" stroke="white" stroke-width="0.5"/><line x1="0" y1="650" x2="768" y2="650" stroke="white" stroke-width="0.5"/><line x1="0" y1="700" x2="768" y2="700" stroke="white" stroke-width="0.5"/><line x1="0" y1="750" x2="768" y2="750" stroke="white" stroke-width="0.5"/><line x1="0" y1="800" x2="768" y2="800" stroke="white" stroke-width="0.5"/><line x1="0" y1="850" x2="768" y2="850" stroke="white" stroke-width="0.5"/><line x1="0" y1="900" x2="768" y2="900" stroke="white" stroke-width="0.5"/><line x1="0" y1="950" x2="768" y2="950" stroke="white" stroke-width="0.5"/><line x1="0" y1="1000" x2="768" y2="1000" stroke="white" stroke-width="0.5"/>
  </g>

  <!-- Icon placeholder -->
  <g transform="translate(324, 412)">
    <rect x="20" y="20" width="80" height="60" rx="8" fill="none" stroke="#6366F1" stroke-width="2" opacity="0.3"/>
    <circle cx="60" cy="50" r="15" fill="none" stroke="#6366F1" stroke-width="2" opacity="0.3"/>
    <path d="M 55 45 L 65 50 L 55 55 Z" fill="#6366F1" opacity="0.5"/>
  </g>

  <!-- Text -->
  <text x="50%" y="552" font-family="Arial, sans-serif" font-size="32" font-weight="bold" fill="white" text-anchor="middle" dominant-baseline="middle" filter="url(#glow)">
    Sleep & Relaxation
  </text>

  <!-- Subtitle -->
  <text x="50%" y="592" font-family="Arial, sans-serif" font-size="16" fill="#999" text-anchor="middle" dominant-baseline="middle">
    AI-Generated Placeholder Image
  </text>

  <!-- Size badge -->
  <rect x="618" y="20" width="130" height="30" rx="15" fill="#6366F1" opacity="0.2"/>
  <text x="683" y="35" font-family="Arial, sans-serif" font-size="12" fill="white" text-anchor="middle" dominant-baseline="middle">
    768 × 1024
  </text>
</svg>